<?xml version="1.0" encoding="UTF-8" standalone="no"?>
<svg
   xmlns:dc="http://purl.org/dc/elements/1.1/"
   xmlns:cc="http://creativecommons.org/ns#"
   xmlns:rdf="http://www.w3.org/1999/02/22-rdf-syntax-ns#"
   xmlns:svg="http://www.w3.org/2000/svg"
   xmlns="http://www.w3.org/2000/svg"
   xmlns:sodipodi="http://sodipodi.sourceforge.net/DTD/sodipodi-0.dtd"
   xmlns:inkscape="http://www.inkscape.org/namespaces/inkscape"
   height="300px"
   width="300px"
   fill="#000000"
   data-name="Layer 1"
   viewBox="0 0 100 100"
   x="0px"
   y="0px"
   version="1.1"
   id="svg839"
   sodipodi:docname="logo.svg"
   inkscape:export-filename="/Users/jonathan/Apps/KimTwo/logo.png"
   inkscape:export-xdpi="327.67999"
   inkscape:export-ydpi="327.67999"
   inkscape:version="1.0.2 (e86c8708, 2021-01-15)">
  <metadata
     id="metadata845">
    <rdf:RDF>
      <cc:Work
         rdf:about="">
        <dc:format>image/svg+xml</dc:format>
        <dc:type
           rdf:resource="http://purl.org/dc/dcmitype/StillImage" />
      </cc:Work>
    </rdf:RDF>
  </metadata>
  <defs
     id="defs843" />
  <sodipodi:namedview
     pagecolor="#ffffff"
     bordercolor="#666666"
     borderopacity="1"
     objecttolerance="10"
     gridtolerance="10"
     guidetolerance="10"
     inkscape:pageopacity="0"
     inkscape:pageshadow="2"
     inkscape:window-width="1292"
     inkscape:window-height="789"
     id="namedview841"
     showgrid="false"
     inkscape:zoom="1.4382204"
     inkscape:cx="91.084763"
     inkscape:cy="124.82175"
     inkscape:window-x="0"
     inkscape:window-y="23"
     inkscape:window-maximized="0"
     inkscape:current-layer="svg839"
     inkscape:document-rotation="0" />
  <title
     id="title833">10</title>
  <rect
     style="fill:#9b4d00;fill-opacity:1;stroke-width:6.4285;stroke-linecap:round"
     id="rect847"
     width="101.28259"
     height="104.75909"
     x="-0.23176791"
     y="-1.3906075" />
  <g
     data-name="Group"
     id="g837"
     style="fill:#ea9900;fill-opacity:1"
     transform="matrix(0.80024344,0,0,0.80024344,9.9910295,9.9977802)">
    <path
       data-name="Compound Path"
       d="M 84.3,69.5 A 12.9,12.9 0 0 0 72.1,78.4 H 51.4 a 4,4 0 0 1 -4,-4 V 59.6 a 12.9,12.9 0 0 0 0,-24.5 v -9.4 a 12,12 0 0 0 -12,-12 h -7.5 a 12.9,12.9 0 1 0 0,8 h 7.4 a 4,4 0 0 1 4,4 v 9.5 a 12.9,12.9 0 0 0 0,24.5 v 14.6 a 12,12 0 0 0 12,12 H 72.1 A 12.9,12.9 0 1 0 84.3,69.5 Z m -68.6,-47 a 4.9,4.9 0 1 1 4.9,-4.9 4.9,4.9 0 0 1 -4.9,4.9 z m 27.7,20 a 4.9,4.9 0 1 1 -4.9,4.9 4.9,4.9 0 0 1 4.9,-4.9 z m 40.9,44.7 a 4.9,4.9 0 1 1 4.9,-4.9 4.9,4.9 0 0 1 -4.9,4.9 z"
       id="path835"
       style="fill:#ea9900;fill-opacity:1" />
  </g>
</svg>
